<svg width="80" height="80" viewBox="0 0 80 80" fill="none" xmlns="http://www.w3.org/2000/svg">
<circle cx="40" cy="40" r="40" fill="#309050"/>
<path d="M63.36 53.8041C62.4875 53.7918 61.824 53.5952 61.2218 53.2265C61.0129 53.1036 60.8532 53.0668 60.6566 53.2388C58.3218 55.3278 55.987 57.4045 53.6399 59.469C53.3082 59.7639 53.259 59.9851 53.4802 60.4029C54.3895 62.0741 53.6399 64.4089 51.9318 65.3305C49.7937 66.4979 47.3114 65.5763 46.4881 63.2661C46.3161 62.7991 46.0949 62.6885 45.6279 62.6885C41.9414 62.7008 38.2672 62.7008 34.5807 62.6885C34.1875 62.6885 33.9909 62.7868 33.8557 63.1923C33.3151 64.7775 32.0125 65.7483 30.3659 65.8343C28.9158 65.9081 27.4412 64.9987 26.8022 63.5856C26.2984 62.4796 26.3599 61.3491 26.9005 60.2677C27.048 59.9728 27.0603 59.8008 26.8022 59.5796C25.4259 58.3753 24.0619 57.1711 22.6979 55.9545C21.7394 55.1066 20.7932 54.2587 19.8593 53.3986C19.5767 53.1405 19.3801 53.0668 18.9869 53.288C16.4923 54.6888 13.6292 52.9808 13.3711 50.4739C13.1745 48.4832 14.1453 46.9718 16.0254 46.3574C16.3326 46.259 16.4555 46.1116 16.4555 45.7798C16.4432 41.6632 16.4432 37.5343 16.4555 33.4178C16.4555 33.0737 16.3326 32.9139 16.0131 32.8156C13.9241 32.1275 12.8796 30.0753 13.5186 27.974C14.1944 25.7376 17.0453 24.6685 19.036 25.9219C19.331 26.1062 19.5152 26.0816 19.7733 25.8605C21.9606 23.9066 24.148 21.9651 26.3476 20.0235C26.3844 19.9989 26.409 19.9621 26.4459 19.9375C27.0726 19.3722 27.0357 19.3845 26.7531 18.5981C26.2616 17.234 26.3599 15.9069 27.3183 14.7641C28.326 13.5598 29.6408 13.0806 31.1646 13.4615C32.4549 13.781 33.4256 14.5798 33.8311 15.9069C33.9663 16.3493 34.1875 16.4845 34.6422 16.4845C38.3532 16.4722 42.0643 16.4722 45.7754 16.4845C46.1317 16.4845 46.3284 16.3984 46.4513 16.0175C47.0042 14.3832 48.1962 13.4738 49.892 13.3509C51.7352 13.2158 53.431 14.5306 53.7874 16.3985C53.9594 17.3201 53.8611 18.2048 53.3819 19.0282C53.2344 19.2739 53.345 19.4214 53.517 19.5811C54.3772 20.343 55.2251 21.1049 56.0853 21.8667C57.5599 23.1816 59.0591 24.4964 60.5214 25.8236C60.7917 26.0694 60.976 26.1062 61.3201 25.9219C62.6104 25.2215 63.9252 25.1846 65.1909 25.971C66.4935 26.7821 67.1202 27.974 66.9728 29.5224C66.8253 31.2059 65.9405 32.3241 64.3184 32.8402C64.0235 32.9385 63.8884 33.086 63.8884 33.4178C63.9007 37.5343 63.9007 41.6632 63.8884 45.7798C63.8884 46.1239 64.0113 46.2836 64.3307 46.3942C65.9159 46.9349 66.813 48.0409 66.9973 49.7244C67.1693 51.3218 66.1003 53.0422 64.5642 53.5706C64.1218 53.7058 63.6795 53.8409 63.36 53.8041ZM40.1719 61.3614C42.052 61.3614 43.9444 61.3614 45.8245 61.3614C46.144 61.3614 46.3775 61.3 46.439 60.9436C46.5127 60.5258 46.9919 60.1817 46.8322 59.7885C46.6847 59.4198 46.2669 59.1618 45.972 58.8669C45.4436 58.3385 44.9029 57.8101 44.3868 57.2694C44.1288 56.999 44.1042 56.6795 44.3622 56.3969C44.6203 56.1143 44.9275 56.1143 45.247 56.3109C45.3576 56.3723 45.4436 56.4706 45.5296 56.5567C46.2178 57.2325 46.9059 57.9084 47.5695 58.5965C47.7907 58.83 47.975 58.8669 48.2576 58.7194C49.4865 58.0804 50.7276 58.0927 51.9564 58.7563C52.1899 58.8791 52.3619 58.8914 52.5708 58.7071C53.345 58.0067 54.1314 57.3063 54.9179 56.6181C56.4785 55.2418 58.0269 53.8532 59.5998 52.4892C59.907 52.2189 59.993 52.0223 59.8087 51.6413C58.6781 49.3803 60.1405 46.9226 62.1312 46.3942C62.4507 46.3082 62.5489 46.1362 62.5489 45.8167C62.5366 41.7001 62.5489 37.5712 62.5489 33.4546C62.5489 33.1105 62.4138 32.9262 62.0943 32.8402C60.0913 32.2995 58.6904 29.805 59.8087 27.5685C59.9807 27.2367 59.9069 27.0401 59.6366 26.8066C57.2772 24.7299 54.9302 22.6409 52.5954 20.5396C52.3497 20.3307 52.1776 20.3553 51.9195 20.4904C50.703 21.1294 49.4742 21.1417 48.2699 20.5027C47.975 20.343 47.803 20.3799 47.5695 20.6133C46.8691 21.3383 46.1563 22.0388 45.4436 22.7515C45.075 23.1202 44.694 23.1447 44.3991 22.8621C44.0919 22.5672 44.1165 22.2108 44.4974 21.8299C45.1487 21.1786 45.7877 20.515 46.4513 19.876C46.7953 19.5565 47.0288 19.2739 46.6601 18.8192C46.5618 18.6964 46.5004 18.512 46.4758 18.3523C46.4021 17.9222 46.144 17.8485 45.7508 17.8485C42.0275 17.8608 38.3041 17.8608 34.5807 17.8485C34.1875 17.8485 33.9786 17.9714 33.8926 18.3523C33.8312 18.5981 33.7328 18.8438 33.5977 19.0527C33.4625 19.2739 33.4871 19.4214 33.6714 19.6057C34.1875 20.1095 34.6914 20.6256 35.2075 21.1417C35.4778 21.4121 35.7604 21.6824 36.0062 21.9651C36.2643 22.2477 36.2765 22.5672 36.0062 22.8375C35.7481 23.1079 35.4286 23.1201 35.1214 22.9112C34.9863 22.8129 34.8634 22.6901 34.7405 22.5672C34.0769 21.9036 33.4133 21.2523 32.7621 20.5888C32.6023 20.429 32.4549 20.3307 32.2091 20.4659C30.9311 21.1663 29.6408 21.154 28.3629 20.4659C28.1662 20.3553 28.0065 20.3553 27.8222 20.515C27.0111 21.24 26.2001 21.9651 25.3768 22.6901C23.8408 24.0541 22.317 25.4181 20.7687 26.7698C20.4615 27.0401 20.3755 27.2367 20.5721 27.6177C21.1005 28.6868 21.1127 29.7681 20.5843 30.8495C20.1051 31.8326 19.3432 32.533 18.2864 32.8648C17.9792 32.9631 17.8195 33.1106 17.8195 33.4669C17.8318 37.6081 17.8318 41.7369 17.8195 45.8781C17.8195 46.1853 17.9423 46.3451 18.2373 46.4188C18.5936 46.5171 18.9254 46.6646 19.2327 46.8735C20.781 47.9057 21.4568 50.0316 20.5106 51.7765C20.3632 52.0591 20.4123 52.2435 20.6581 52.4278C20.8915 52.5998 21.1251 52.7964 21.3462 52.9931C23.4721 54.8855 25.598 56.7779 27.7116 58.6703C27.9328 58.8669 28.1048 58.9283 28.3874 58.7686C29.6163 58.1173 30.8697 58.0681 32.1231 58.744C32.4057 58.8914 32.5778 58.8546 32.7867 58.6334C33.4871 57.9084 34.1998 57.2079 34.9125 56.4952C35.2935 56.1266 35.699 56.0897 35.9939 56.3969C36.2765 56.6918 36.2397 57.0482 35.8587 57.4291C35.2689 58.019 34.7036 58.6457 34.0769 59.1986C33.5977 59.6164 33.3273 60.0097 33.7697 60.5995C33.8312 60.6855 33.868 60.8084 33.8926 60.919C33.9663 61.3 34.2121 61.3982 34.5684 61.386C36.424 61.3491 38.3041 61.3614 40.1719 61.3614ZM14.6737 29.2029C14.6737 30.5669 15.8165 31.6974 17.1682 31.6728C18.4953 31.6482 19.6013 30.5423 19.6013 29.2152C19.6013 27.8389 18.4953 26.7083 17.1436 26.696C15.7673 26.7083 14.6737 27.8266 14.6737 29.2029ZM47.6555 17.1726C47.6555 18.5612 48.6877 19.6303 50.0272 19.6303C51.4649 19.6303 52.5708 18.5366 52.5708 17.1235C52.5708 15.8086 51.4035 14.7027 50.064 14.7027C48.6017 14.6904 47.5203 16.0052 47.6555 17.1726ZM32.7006 62.0373C32.7006 60.6364 31.6684 59.5673 30.2921 59.5673C28.9281 59.5673 27.773 60.6855 27.773 62.025C27.773 63.3767 28.9158 64.4949 30.2798 64.4949C31.6684 64.4949 32.7006 63.4381 32.7006 62.0373ZM63.2125 52.4401C64.5888 52.4401 65.6701 51.3833 65.6824 50.0193C65.6947 48.6553 64.6011 47.5247 63.274 47.5125C61.8731 47.5002 60.7549 48.6061 60.7426 50.007C60.7426 51.3587 61.8363 52.4401 63.2125 52.4401ZM47.6555 62.025C47.5326 63.4258 48.7983 64.5072 50.0517 64.5072C51.4526 64.5072 52.5708 63.4013 52.5708 62.0127C52.5708 60.6978 51.4157 59.6042 50.0763 59.5796C48.872 59.5304 47.508 60.6487 47.6555 62.025ZM65.6824 29.1906C65.6824 27.8389 64.5888 26.7329 63.2371 26.7206C61.8976 26.6961 60.7549 27.8512 60.7549 29.2152C60.7549 30.5546 61.8853 31.6851 63.2248 31.6851C64.5765 31.6851 65.6824 30.5669 65.6824 29.1906ZM32.7006 17.1603C32.7006 15.7472 31.6684 14.7027 30.2798 14.7027C28.8913 14.7027 27.7607 15.8332 27.773 17.2218C27.7853 18.5366 28.9281 19.6426 30.2798 19.6426C31.6561 19.618 32.7006 18.5489 32.7006 17.1603ZM17.0945 52.4401C18.5322 52.4401 19.6136 51.3956 19.6136 49.9701C19.6136 48.643 18.4708 47.5125 17.1436 47.5125C15.8042 47.5125 14.686 48.6307 14.686 49.9701C14.6737 51.3587 15.7305 52.4401 17.0945 52.4401Z" fill="white"/>
<path d="M39.3362 33.2458C40.5281 33.2458 41.7078 33.295 42.8875 33.467C43.1824 33.5039 43.3299 33.4055 43.4527 33.1475C43.8091 32.3365 44.3006 31.6114 44.8659 30.9356C45.1854 30.5424 45.554 30.4441 45.8489 30.6775C46.2053 30.9479 46.2176 31.3411 45.8858 31.7589C45.4926 32.2627 45.1239 32.7788 44.829 33.3441C44.6693 33.6513 44.7184 33.8356 45.0871 33.9217C46.6231 34.2903 48.0977 34.8064 49.5232 35.4946C49.7689 35.6052 49.9041 35.5683 50.0516 35.3594C50.4448 34.8433 50.8872 34.364 51.4155 33.9708C51.7596 33.7128 52.0791 33.7128 52.3249 33.9831C52.583 34.2534 52.5952 34.6344 52.3003 34.9293C51.9439 35.2857 51.5385 35.6052 51.219 36.0107C51.0715 36.2073 51.0838 36.3179 51.305 36.4408C52.669 37.1904 53.5415 38.3209 53.947 39.8201C54.033 40.1396 54.2419 40.1395 54.4999 40.1027C55.2618 39.9798 56.0237 39.9921 56.7856 40.1395C56.8716 40.1518 56.9576 40.1764 57.0313 40.201C57.4245 40.3239 57.6334 40.6434 57.5597 40.9997C57.4737 41.3561 57.1665 41.5773 56.7364 41.479C56.1589 41.3438 55.5936 41.3192 55.0038 41.3438C54.8686 41.3561 54.7211 41.3807 54.586 41.4052C54.2296 41.4667 54.0698 41.651 53.9961 42.0442C53.7749 43.2116 53.2219 44.2316 52.3126 45.018C52.0546 45.2392 52.0545 45.3866 52.2266 45.6447C52.6198 46.2714 52.9639 46.9227 53.1851 47.6231C53.3694 48.1761 52.9762 48.6553 52.4601 48.5447C52.1037 48.471 51.9563 48.1884 51.8702 47.8812C51.7105 47.3405 51.4033 46.8858 51.1452 46.3943C50.9732 46.0625 50.7643 46.0011 50.3956 46.1239C49.0439 46.5786 47.7168 46.468 46.4388 45.8536C46.3159 45.7922 46.1807 45.657 46.0456 45.743C45.8858 45.8413 45.9841 46.0257 46.0087 46.1731C46.0701 46.7384 46.0824 47.3036 45.9473 47.8566C45.8613 48.2621 45.554 48.4956 45.1977 48.4464C44.8536 48.3973 44.6201 48.0655 44.657 47.66C44.7184 46.8367 44.7307 46.0257 44.4973 45.2146C44.4112 44.932 44.2638 44.76 43.9811 44.6617C42.3099 44.0718 40.5896 43.7892 38.8078 43.8752C38.4883 43.8875 38.3899 44.0226 38.4022 44.3176C38.4391 45.2761 38.476 46.2468 38.5128 47.2053C38.5251 47.3896 38.5251 47.574 38.4022 47.7337C38.2302 47.9549 38.0213 48.0655 37.7387 48.0041C37.4438 47.9303 37.2717 47.7214 37.2471 47.4265C37.198 46.849 37.1611 46.2714 37.1243 45.6939C37.0997 45.3006 37.0628 44.9074 37.0505 44.5019C37.0505 44.1578 36.8908 44.0964 36.5836 44.1701C35.281 44.4527 34.0645 44.9197 32.9216 45.5956C32.5776 45.8045 32.2089 45.9396 31.8403 46.0748C31.5576 46.1731 31.4594 46.3574 31.4348 46.6524C31.3488 47.5248 31.1644 48.385 30.8326 49.2083C30.6729 49.6138 30.3903 49.7613 30.0462 49.6507C29.6775 49.5278 29.4932 49.1592 29.6161 48.7659C29.825 48.1024 30.0462 47.4511 30.0954 46.7507C30.1076 46.468 30.0339 46.3697 29.7635 46.3574C28.375 46.296 27.2199 45.7307 26.286 44.7231C26.0771 44.5019 25.8927 44.465 25.6224 44.6002C24.9957 44.9197 24.3444 45.2023 23.6685 45.4235C23.3368 45.5341 23.0296 45.4235 22.8698 45.1163C22.6978 44.7845 22.8084 44.4773 23.1279 44.2807C23.2753 44.1947 23.4228 44.121 23.5825 44.0472C24.0126 43.8629 24.4427 43.6786 24.8728 43.4942C25.1309 43.3837 25.2292 43.2485 25.1186 42.9413C24.6885 41.7247 24.6762 40.4959 25.094 39.2794C25.1923 38.9967 25.1186 38.8616 24.9097 38.6772C24.3567 38.1857 23.8283 37.6819 23.4842 37.006C23.3859 36.8217 23.2876 36.6251 23.2262 36.4285C23.0787 35.9984 23.2385 35.6543 23.6071 35.5191C23.9266 35.3963 24.2461 35.5437 24.4182 35.9369C24.7008 36.5759 25.1309 37.092 25.6347 37.559C25.8067 37.7187 25.9542 37.7925 26.1262 37.5713C26.7775 36.7848 27.6991 36.3793 28.5593 35.9124C29.0263 35.6543 29.5178 35.4331 30.0093 35.2119C30.2674 35.1013 30.3042 34.9784 30.1936 34.7204C29.8373 33.9462 29.6038 33.1352 29.4932 32.2873C29.4318 31.7958 29.6407 31.4148 30.0462 31.3411C30.3903 31.2797 30.6606 31.55 30.7589 32.017C30.9186 32.8034 31.103 33.5899 31.4716 34.3149C31.5822 34.5238 31.7051 34.5729 31.914 34.4869C33.3149 33.9708 34.7772 33.7005 36.2395 33.467C36.5836 33.4178 36.6819 33.3072 36.6327 32.9509C36.5221 32.017 36.5344 31.0831 36.7556 30.1614C36.8539 29.7682 37.1366 29.5347 37.4683 29.5839C37.8739 29.6453 38.095 29.9403 38.0213 30.3949C37.8984 31.2182 37.837 32.0538 37.9476 32.8894C37.9967 33.1967 38.0705 33.3564 38.4268 33.295C38.734 33.2089 39.0412 33.2458 39.3362 33.2458ZM39.6311 42.5481C42.0273 42.5358 44.485 43.1993 46.832 44.5388C47.6799 45.0303 48.6015 45.19 49.5723 44.9811C51.2189 44.6125 52.4601 43.3099 52.7058 41.5896C52.9147 40.1027 52.3249 38.5421 50.8011 37.6819C49.5969 36.9937 48.3558 36.3916 47.0409 35.9124C43.4896 34.6221 39.8645 34.2657 36.1412 34.8187C34.5929 35.0399 33.0937 35.4331 31.6314 35.9861C30.3411 36.4776 29.0877 37.0306 27.9326 37.7679C26.5072 38.6772 25.8559 40.2133 26.1876 41.8722C26.458 43.2362 27.7237 44.6862 29.3335 44.9689C30.5132 45.1778 31.5454 44.8583 32.5407 44.3053C34.6543 43.1379 36.9153 42.5358 39.6311 42.5481Z" fill="white"/>
<path d="M50.988 62.0002C51.0003 62.5409 50.5948 62.9464 50.0664 62.9464C49.5872 62.9464 49.1939 62.5409 49.1816 62.0494C49.1816 61.5456 49.5994 61.1155 50.091 61.1155C50.5456 61.1155 50.9757 61.5333 50.988 62.0002Z" fill="white"/>
<path d="M64.1457 29.1536C64.158 29.6206 63.7279 30.063 63.2733 30.0753C62.7694 30.0875 62.327 29.6698 62.3147 29.1414C62.3024 28.6621 62.6957 28.2443 63.1749 28.2197C63.6665 28.2074 64.1334 28.6498 64.1457 29.1536Z" fill="white"/>
<path d="M31.1772 17.1728C31.1772 17.6643 30.7594 18.0821 30.3047 18.0821C29.8255 18.0821 29.334 17.6274 29.334 17.1851C29.334 16.7058 29.8132 16.2266 30.2925 16.2266C30.7717 16.2389 31.1895 16.6812 31.1772 17.1728Z" fill="white"/>
<path d="M17.1203 50.9166C16.6288 50.9043 16.2109 50.4742 16.2109 49.9827C16.2232 49.4666 16.6165 49.0979 17.1449 49.0979C17.661 49.0979 18.0665 49.5034 18.0542 50.0072C18.0419 50.5111 17.6241 50.9166 17.1203 50.9166Z" fill="white"/>
<path d="M37.8615 36.797C38.9183 36.7848 38.8938 36.7725 38.5866 37.5343C38.2425 38.3577 37.837 39.1564 37.5912 40.0166C37.5052 40.3361 37.3086 40.4712 36.9891 40.5204C34.9247 40.8276 32.9954 41.5158 31.1644 42.5234C29.8742 43.2484 28.5224 42.634 28.3135 41.2454C28.2152 40.6187 28.5593 39.906 29.1491 39.5619C30.6114 38.714 32.1475 38.0382 33.7696 37.5589C35.195 37.1411 36.6573 36.9568 37.8615 36.797Z" fill="white"/>
</svg>
