<svg width="80" height="80" viewBox="0 0 80 80" fill="none" xmlns="http://www.w3.org/2000/svg">
<circle cx="40" cy="40" r="40" fill="#309050"/>
<path d="M40.3108 70.7888C23.5614 70.9486 9.76088 57.0319 9.7754 40.268C9.78993 23.5621 23.5759 9.76161 40.3399 9.77613C57.0748 9.80519 70.8317 23.5766 70.8317 40.3406C70.8026 57.0319 57.0312 70.9486 40.3108 70.7888ZM68.6091 40.9217C68.9722 25.7557 57.0748 12.0859 40.3544 11.9697C25.4499 11.868 12.0997 23.5621 11.9544 40.2389C11.8237 55.0853 23.4888 68.45 40.1656 68.6389C55.2008 68.7841 68.2023 56.9012 68.6091 40.9217Z" fill="white"/>
<path d="M40.2973 13.8724C54.8096 13.7126 66.7942 25.857 66.7507 40.3548C66.7216 54.8235 54.737 66.8082 40.1811 66.7646C25.785 66.721 13.6842 54.7509 13.8294 40.0352C13.9747 25.7263 25.8141 13.7271 40.2973 13.8724ZM40.2683 16.0079C26.5985 16.1677 15.9939 26.9611 16.023 40.3112C16.052 54.1117 27.0488 64.6437 40.3409 64.571C54.3738 64.4984 64.6297 53.3273 64.5716 40.2677C64.499 26.3219 53.4005 16.1095 40.2683 16.0079Z" fill="white"/>
<path d="M28.1521 39.2801C28.1521 41.648 26.4234 43.3912 24.0701 43.3912C21.6877 43.3912 19.959 41.648 19.959 39.2511C19.959 36.9413 21.7167 35.1836 24.0556 35.1981C26.4089 35.1981 28.1521 36.9268 28.1521 39.2801ZM26.0312 39.2656C26.0021 38.2342 25.0724 37.319 24.0556 37.319C23.0096 37.319 22.0654 38.2778 22.0799 39.3092C22.0944 40.3406 23.0241 41.2558 24.041 41.2558C25.087 41.2558 26.0457 40.2825 26.0312 39.2656Z" fill="white"/>
<path d="M34.238 51.5118C34.238 53.8361 32.4658 55.5793 30.0979 55.5648C27.7736 55.5648 26.0449 53.7925 26.0449 51.4246C26.0449 49.1004 27.8172 47.3571 30.1851 47.3717C32.5239 47.3717 34.2526 49.1439 34.238 51.5118ZM30.1705 49.4926C29.1391 49.4781 28.1949 50.4078 28.1658 51.4537C28.1513 52.4561 29.081 53.4148 30.0979 53.4294C31.1293 53.4439 32.0735 52.5142 32.1026 51.4682C32.1316 50.4804 31.1874 49.5216 30.1705 49.4926Z" fill="white"/>
<path d="M57.5846 29.1404C57.5846 31.4937 55.8269 33.237 53.4735 33.237C51.1202 33.237 49.377 31.4937 49.377 29.1259C49.377 26.758 51.1347 25.0293 53.5316 25.0293C55.8559 25.0438 57.5991 26.8016 57.5846 29.1404ZM53.488 27.1647C52.4421 27.1793 51.4979 28.1526 51.5269 29.1695C51.556 30.2009 52.4712 31.1015 53.5026 31.1015C54.5049 31.1015 55.4637 30.1573 55.4637 29.1549C55.4637 28.109 54.5194 27.1647 53.488 27.1647Z" fill="white"/>
<path d="M38.3064 27.1068C38.3064 29.4602 36.5632 31.2034 34.2099 31.2034C31.8565 31.2034 30.1133 29.4602 30.1133 27.1068C30.1133 24.7535 31.8565 23.0103 34.2099 23.0103C36.5632 23.0103 38.3064 24.7535 38.3064 27.1068ZM36.171 27.0778C36.1565 26.0609 35.1977 25.1167 34.1953 25.1312C33.1494 25.1457 32.2052 26.1045 32.2342 27.1359C32.2488 28.1527 33.2075 29.097 34.2099 29.0825C35.2558 29.0534 36.1855 28.1092 36.171 27.0778Z" fill="white"/>
<path d="M51.4501 55.5648C49.0967 55.5648 47.3535 53.8216 47.3535 51.4537C47.3535 49.1004 49.0968 47.3717 51.4646 47.3572C53.818 47.3572 55.5612 49.1004 55.5612 51.4683C55.5467 53.8216 53.8034 55.5648 51.4501 55.5648ZM51.4501 53.4439C52.4524 53.4584 53.4112 52.5142 53.4258 51.4973C53.4403 50.4659 52.496 49.5071 51.4501 49.5071C50.4332 49.5071 49.5035 50.4223 49.4745 51.4537C49.4599 52.4706 50.4042 53.4148 51.4501 53.4439Z" fill="white"/>
<path d="M57.9928 45.1052C55.901 45.1052 54.4483 43.7687 54.303 41.7204C54.2304 40.6309 53.475 39.9626 52.2402 39.9191C51.4558 39.89 51.0345 39.5123 51.02 38.8586C51.0054 38.2485 51.3541 37.8563 51.9787 37.7546C54.0125 37.4495 56.206 39.1346 56.453 41.1974C56.4966 41.5606 56.482 41.9383 56.7145 42.2579C57.1067 42.7663 57.8911 42.9842 58.6175 42.7663C59.2567 42.5775 59.6053 42.1126 59.6489 41.3718C59.6925 40.7326 60.0992 40.3113 60.7093 40.3113C61.2904 40.3113 61.7553 40.7616 61.8134 41.3572C61.9441 42.7373 61.1451 44.0592 59.8523 44.6693C59.1695 45.0035 58.7482 45.1052 57.9928 45.1052Z" fill="white"/>
<path d="M46.0799 56.4802C45.9637 58.0782 44.9904 59.371 43.0583 59.7487C41.5185 60.0538 40.182 59.618 39.1942 58.3396C38.831 57.8748 38.6422 57.3227 38.5841 56.7562C38.4679 55.318 37.8577 54.7079 36.4486 54.6353C35.7368 54.6062 35.301 54.2285 35.2574 53.6329C35.2284 53.0228 35.6061 52.6306 36.3179 52.5289C38.3517 52.2384 40.5742 54.0252 40.705 56.1316C40.7486 56.7853 40.9519 57.2937 41.5911 57.5261C42.3029 57.7876 42.9567 57.6424 43.5377 57.163C43.9154 56.8579 43.8137 56.393 43.9009 55.9863C44.0026 55.4924 44.2931 55.2018 44.787 55.1292C45.2955 55.0566 45.6732 55.26 45.9201 55.7103C46.0509 55.9282 46.0945 56.1751 46.0799 56.4802Z" fill="white"/>
<path d="M41.0099 27.2519C41.0534 25.2763 42.2447 23.475 44.5544 23.4314C45.8037 23.4023 46.4865 22.676 46.5737 21.4122C46.6172 20.773 47.0676 20.3081 47.6632 20.3081C48.2733 20.3081 48.7236 20.802 48.7382 21.4703C48.7817 23.7074 46.9804 25.5814 44.6997 25.6104C44.075 25.6249 43.5957 25.7993 43.3487 26.3949C43.0872 27.034 43.0872 27.6877 43.523 28.2688C43.7555 28.5739 44.075 28.6901 44.4527 28.7192C45.121 28.7773 45.6004 29.2857 45.5568 29.8668C45.5132 30.4624 44.9902 30.8836 44.322 30.8836C42.5352 30.8546 40.9953 29.1695 41.0099 27.2519Z" fill="white"/>
<path d="M22.9062 28.7772C22.9789 27.8765 23.0806 27.0049 23.5164 26.2205C23.836 25.6539 24.388 25.436 24.9691 25.6685C25.5066 25.8864 25.7099 26.4239 25.5066 27.063C25.3468 27.5715 25.0998 28.0654 25.0853 28.6174C25.0562 29.8812 25.5937 30.564 26.8285 30.84C27.7873 31.0579 28.1359 32.0022 27.5258 32.6849C27.2788 32.9609 26.9592 33.0336 26.6106 33.0045C25.1579 32.9174 23.1823 31.5518 23.0079 29.6924C22.9789 29.3873 22.9498 29.0677 22.9062 28.7772Z" fill="white"/>
<path d="M41.6195 48.8827C41.634 48.2435 41.5323 47.6334 41.2272 47.0814C40.9076 46.4858 40.3992 46.2098 39.7455 46.1953C39.4986 46.1953 39.2371 46.2098 38.9901 46.1953C38.4091 46.1807 37.9442 45.7449 37.9006 45.1929C37.8425 44.6699 38.2057 44.176 38.7577 44.0307C40.3847 43.5659 42.433 44.5101 43.2029 46.0645C43.7113 47.0814 43.9583 48.1564 43.813 49.2895C43.7258 50.0158 43.29 50.4516 42.6363 50.408C42.0262 50.3644 41.6485 49.8996 41.6485 49.1733C41.6195 49.0861 41.6195 48.9844 41.6195 48.8827Z" fill="white"/>
<path d="M33.8906 40.936C33.9778 39.7448 34.4572 38.6118 35.6193 37.8128C36.52 37.2027 37.5078 36.8395 38.5973 36.7523C39.3382 36.6942 39.8611 37.101 39.9193 37.7692C39.9774 38.3793 39.4834 38.9168 38.7862 38.9604C38.1325 38.9894 37.5223 39.1347 36.9703 39.4979C36.2149 39.9773 35.997 40.66 36.1423 41.5026C36.1858 41.7931 36.3021 42.0837 36.2149 42.4033C36.0697 42.8972 35.7355 43.1732 35.2416 43.2313C34.7622 43.2894 34.4281 43.0279 34.2248 42.6066C33.9778 42.1418 33.8906 41.6333 33.8906 40.936Z" fill="white"/>
<path d="M46.5723 32.9462C46.5723 32.3215 47.0226 31.8567 47.6618 31.8567C48.301 31.8567 48.8094 32.3215 48.7949 32.9026C48.7803 33.4837 48.2283 34.0067 47.6327 34.0212C47.0661 34.0212 46.5723 33.5273 46.5723 32.9462Z" fill="white"/>
<path d="M35.0801 48.7517C34.4555 48.7663 33.918 48.2578 33.918 47.6767C33.918 47.1538 34.4555 46.6163 34.993 46.5872C35.6031 46.5727 36.126 47.0811 36.1406 47.6767C36.1406 48.2433 35.6467 48.7372 35.0801 48.7517Z" fill="white"/>
<path d="M35.0851 57.1191C35.0851 57.6857 34.533 58.2522 33.981 58.2377C33.429 58.2232 32.877 57.6566 32.877 57.1046C32.877 56.5235 33.4144 56.0151 34.01 56.0442C34.6056 56.0587 35.0851 56.5526 35.0851 57.1191Z" fill="white"/>
<path d="M48.7367 45.5269C48.7513 46.1225 48.2573 46.66 47.6763 46.6745C47.1243 46.689 46.5723 46.137 46.5723 45.5705C46.5723 44.9749 47.0662 44.4664 47.6618 44.4519C48.2138 44.4519 48.7222 44.9603 48.7367 45.5269Z" fill="white"/>
<path d="M39.25 20.3661C39.25 19.7414 39.7149 19.2184 40.2959 19.2039C40.8915 19.1894 41.4145 19.7269 41.4 20.3515C41.4 20.9326 40.9061 21.3975 40.3105 21.412C39.7149 21.4265 39.25 20.9762 39.25 20.3661Z" fill="white"/>
<path d="M43.5091 52.9064C43.5237 53.4585 43.0007 53.9814 42.4487 53.9959C41.8531 54.0105 41.3447 53.5311 41.3156 52.9355C41.2866 52.369 41.8095 51.8169 42.3906 51.7879C42.9135 51.7733 43.4946 52.3544 43.5091 52.9064Z" fill="white"/>
<path d="M31.9009 38.2051C31.2763 38.2051 30.7969 37.7547 30.7969 37.1446C30.7969 36.5926 31.3053 36.0696 31.8428 36.0406C32.4094 36.0261 32.9614 36.5345 32.9759 37.1156C33.005 37.6967 32.5111 38.1906 31.9009 38.2051Z" fill="white"/>
<path d="M55.0276 37.1737C54.4175 37.1737 53.9671 36.7379 53.9671 36.1423C53.9526 35.5031 54.3884 35.0237 55.0131 35.0237C55.6377 35.0092 56.1171 35.5177 56.1171 36.1568C56.1026 36.7234 55.6377 37.1737 55.0276 37.1737Z" fill="white"/>
<path d="M26.6279 45.5561C26.6279 46.1663 26.134 46.6892 25.5529 46.6747C25.0009 46.6602 24.5215 46.1517 24.5215 45.5707C24.5215 44.946 24.9864 44.4521 25.5965 44.4666C26.2066 44.4811 26.6279 44.9315 26.6279 45.5561Z" fill="white"/>
<path d="M39.2058 31.944C39.1912 32.5686 38.7409 33.0189 38.1598 33.0044C37.5788 32.9899 37.0703 32.4669 37.0703 31.8858C37.0703 31.3193 37.6078 30.8254 38.2179 30.8399C38.8281 30.8544 39.2348 31.3048 39.2058 31.944Z" fill="white"/>
<path d="M44.4659 42.3746C43.8121 42.3746 43.4344 42.0259 43.4199 41.4158C43.4199 40.7476 43.8267 40.3699 44.553 40.3699C45.1486 40.3699 45.5699 40.7912 45.5844 41.3722C45.5844 42.0114 45.1922 42.3746 44.4659 42.3746Z" fill="white"/>
</svg>
