<svg width="80" height="80" viewBox="0 0 80 80" fill="none" xmlns="http://www.w3.org/2000/svg">
<circle cx="40" cy="40" r="40" fill="#309050"/>
<path d="M35.3847 30.7565C35.3847 31.3498 35.3847 31.8519 35.3847 32.3539C35.3695 33.7232 34.2437 34.8642 32.9049 34.849C31.5661 34.849 30.4402 33.7079 30.4402 32.3235C30.4402 31.8519 30.4402 31.365 30.4402 30.8477C30.1968 30.9086 30.0903 31.076 29.9686 31.1977C29.2079 31.9432 28.4776 32.7038 27.717 33.4493C26.5759 34.5751 24.9937 34.5143 23.9439 33.3124C23.1224 32.3691 23.2289 30.9238 24.2026 29.9349C24.948 29.159 25.724 28.4135 26.4846 27.6529C26.5911 27.5464 26.7281 27.4703 26.7737 27.2573C26.2869 27.1812 25.8152 27.1964 25.3436 27.2269C24.1265 27.3029 22.8181 26.2075 22.8029 24.747C22.7877 23.393 23.9135 22.2976 25.3132 22.2672C25.7848 22.2519 26.2716 22.2672 26.8041 22.2672C26.5911 21.8259 26.2564 21.5825 25.9674 21.3087C25.0545 20.4263 24.8111 19.407 25.2675 18.3572C25.9522 16.8054 27.9604 16.3794 29.2079 17.5356C29.5883 17.8856 29.923 18.2963 30.2729 18.6767C30.3185 18.6463 30.3794 18.6311 30.425 18.6006C30.425 18.129 30.425 17.6574 30.425 17.1857C30.4098 16.1816 30.8814 15.4514 31.7334 14.9493C33.2548 14.0517 35.3239 15.1927 35.3847 16.9575C35.3999 17.49 35.3847 18.0377 35.3847 18.5702C35.6129 18.6006 35.689 18.4333 35.7803 18.3268C36.5714 17.5357 37.3625 16.7445 38.1536 15.9534C38.96 15.1623 40.0097 14.9797 41.0138 15.4514C41.9571 15.8926 42.5048 16.851 42.4135 17.9464C42.3527 18.6158 42.0027 19.1483 41.5463 19.6047C40.74 20.4111 39.9489 21.2174 39.1425 22.0085C38.9296 22.2215 38.8535 22.328 39.2034 22.5106C40.0858 22.967 40.5726 23.6973 40.5726 24.7318C40.5726 25.7511 40.101 26.4966 39.2034 26.9378C38.8839 27.0899 38.8839 27.1964 39.1273 27.4399C39.6142 27.9419 40.2075 28.3527 40.5118 29.0373C41.0443 30.2392 40.7248 31.4715 39.6598 32.1714C38.6557 32.856 37.3321 32.6886 36.4497 31.791C36.1302 31.4867 35.7955 31.1672 35.3847 30.7565ZM26.2108 25.8272C26.4542 25.8272 26.652 25.8272 26.8498 25.8272C27.5192 25.7968 28.006 26.0706 28.2647 26.6944C28.5385 27.3334 28.3103 27.8506 27.8539 28.307C26.9563 29.2047 26.0739 30.0871 25.1915 30.9847C24.7198 31.4715 24.7046 32.1257 25.1306 32.5365C25.6022 32.9929 26.1195 32.9777 26.6824 32.4756C27.6409 31.6237 28.4929 30.6956 29.4057 29.798C29.8469 29.372 30.3185 29.1134 30.9271 29.372C31.5813 29.6459 31.8703 30.1479 31.8855 30.8325C31.9008 31.3498 31.8703 31.8823 31.9008 32.3996C31.916 33.0081 32.2963 33.3733 32.8897 33.4037C33.483 33.4189 33.8329 33.0842 33.9546 32.4908C34.0763 31.8823 33.8938 31.2737 33.9851 30.6652C34.0763 30.011 34.3806 29.5546 35.0044 29.3264C35.6129 29.1134 36.0693 29.4024 36.4953 29.798C36.8605 30.1479 37.2104 30.5283 37.5907 30.8782C38.0624 31.3194 38.6709 31.2889 39.1121 30.8477C39.4925 30.4522 39.4925 29.8284 39.0817 29.4024C38.5492 28.8395 37.9863 28.2918 37.4386 27.7441C36.8757 27.166 37.0126 26.238 37.7277 25.9185C37.9254 25.8272 38.1689 25.812 38.3819 25.7663C38.8991 25.6598 39.2186 25.2643 39.2186 24.747C39.2186 24.2145 38.8991 23.8342 38.3666 23.7277C38.1993 23.6973 38.0319 23.682 37.8646 23.6212C37.1191 23.3625 36.8605 22.6019 37.2865 21.9477C37.393 21.7803 37.5299 21.6434 37.6668 21.5065C38.6709 20.5023 39.6598 19.4982 40.6639 18.5093C40.9378 18.2355 41.1051 17.916 41.0138 17.5204C40.9226 17.1401 40.7096 16.8358 40.3292 16.7293C39.9184 16.6228 39.5229 16.6532 39.1882 16.988C38.2601 17.9312 37.3169 18.8745 36.3584 19.8025C35.9172 20.2285 35.3695 20.2893 34.8218 20.0764C34.3045 19.8786 34.0763 19.4526 34.0003 18.9353C33.9546 18.5093 33.9394 18.0986 33.9698 17.6726C34.0003 17.2922 33.9851 16.8967 33.7873 16.562C33.5743 16.212 33.0874 16.0295 32.6767 16.136C32.1898 16.2577 31.916 16.562 31.8855 17.064C31.8703 17.6422 31.9008 18.2203 31.8703 18.7984C31.8399 19.3765 31.5965 19.8481 31.0336 20.0764C30.4859 20.3046 29.9534 20.2437 29.497 19.8177C29.1014 19.4374 28.7059 19.057 28.3103 18.6767C27.8235 18.2203 27.1845 18.2051 26.7585 18.6463C26.3325 19.0875 26.3629 19.696 26.8041 20.1677C27.1845 20.548 27.58 20.9131 27.9452 21.3087C28.5385 21.9629 28.5081 22.8149 27.8995 23.3473C27.58 23.6212 27.1693 23.7277 26.7585 23.7277C26.2564 23.7429 25.7696 23.7277 25.2675 23.7277C24.6742 23.7429 24.2938 24.108 24.2482 24.6557C24.2026 25.2186 24.5373 25.6598 25.1154 25.7968C25.4957 25.8728 25.8761 25.812 26.2108 25.8272Z" fill="white"/>
<path d="M49.901 63.0096C49.6575 63.0553 49.5815 63.1922 49.475 63.2987C48.6382 64.105 47.8623 64.9722 46.9799 65.7329C45.8845 66.6762 44.4848 66.6001 43.5112 65.5656C42.5831 64.5767 42.6135 63.1313 43.5872 62.1272C44.3631 61.3209 45.1695 60.545 45.9606 59.7539C46.0519 59.6626 46.1888 59.5713 46.2496 59.3431C45.778 59.3431 45.3368 59.3431 44.8956 59.3431C44.2718 59.3279 43.6937 59.2062 43.1917 58.7802C42.3853 58.0804 42.0963 57.2132 42.3701 56.1786C42.6288 55.205 43.3286 54.6421 44.3023 54.3986C44.8195 54.2617 45.352 54.3378 45.8693 54.3073C45.9758 54.3073 46.1279 54.3378 46.1584 54.2008C46.1888 54.0943 46.0671 54.0335 46.0062 53.9726C45.6867 53.6379 45.3368 53.3184 45.0325 52.9685C44.2566 52.0557 44.3327 50.656 45.1695 49.7432C45.9606 48.8912 47.4211 48.7543 48.3644 49.4085C48.7295 49.6671 49.0186 50.0018 49.3381 50.2909C49.4902 50.4278 49.6119 50.6256 49.8857 50.7321C49.8857 50.1996 49.8705 49.6975 49.8857 49.1955C49.9162 47.7806 51.042 46.7004 52.4417 46.7309C53.7196 46.7613 54.815 47.8567 54.8302 49.1346C54.8302 49.6519 54.8302 50.1692 54.8302 50.7473C55.1345 50.5952 55.2714 50.3974 55.4388 50.2452C56.1386 49.5454 56.8385 48.8456 57.5383 48.1457C58.6033 47.0808 60.1399 47.0351 61.1592 48.024C62.1329 48.9825 62.1177 50.5647 61.0983 51.6145C60.292 52.4513 59.4552 53.2576 58.6337 54.0791C58.299 54.4138 58.3142 54.3986 58.725 54.642C59.5465 55.1137 60.0029 55.7983 60.0182 56.7872C60.0334 57.8217 59.5922 58.5672 58.6946 59.0236C58.299 59.2214 58.3446 59.3431 58.6185 59.6018C58.9228 59.8756 59.2118 60.1647 59.4857 60.4689C60.6419 61.7165 60.3833 63.5421 58.9228 64.3941C57.9947 64.9418 56.6863 64.744 55.9409 63.9681C55.667 63.6791 55.3779 63.4052 55.1041 63.1314C55.0432 63.0705 54.9824 62.9792 54.9063 63.0096C54.7846 63.0553 54.8302 63.177 54.815 63.2683C54.815 63.6334 54.815 63.9986 54.815 64.3789C54.815 65.8394 53.7805 66.9196 52.3656 66.9196C50.9051 66.9196 49.8705 65.8851 49.8553 64.3941C49.8858 63.9529 49.901 63.4965 49.901 63.0096ZM45.6563 55.7831C45.352 55.7831 45.063 55.7831 44.7587 55.7831C43.9524 55.8135 43.4959 56.5438 43.8002 57.2893C43.998 57.7761 44.424 57.9282 44.8956 57.9434C45.4281 57.9586 45.9758 57.9434 46.5083 57.9587C47.0864 57.9739 47.5428 58.2934 47.7102 58.8106C47.8927 59.3583 47.8319 59.8604 47.3907 60.3016C46.4626 61.2296 45.5194 62.1577 44.6065 63.1009C44.1349 63.5878 44.1654 64.2724 44.5761 64.668C45.0021 65.0787 45.6867 65.0331 46.1736 64.5463C47.0864 63.6334 47.9992 62.7206 48.9121 61.823C49.3685 61.3818 49.901 61.2905 50.4791 61.5339C51.0572 61.7773 51.3158 62.2794 51.3006 62.8575C51.2854 63.39 51.3006 63.9377 51.3311 64.4702C51.3767 65.1396 51.757 65.5351 52.3656 65.5199C52.9742 65.5199 53.3697 65.0787 53.3849 64.4093C53.4001 63.8312 53.3697 63.2531 53.4306 62.6749C53.4762 62.112 53.7805 61.6708 54.3282 61.4883C54.8911 61.2905 55.4236 61.4122 55.8496 61.8534C56.2299 62.2337 56.595 62.6293 56.9906 62.9944C57.5687 63.5269 58.4055 63.3444 58.725 62.6445C58.9228 62.2185 58.7706 61.7469 58.3294 61.3209C57.8426 60.8493 57.3557 60.3777 56.8841 59.8908C56.5798 59.5713 56.3516 59.2062 56.519 58.7346C56.6863 58.2629 57.0058 58.0043 57.5231 57.9434C58.2229 57.8674 58.6337 57.4262 58.6337 56.8176C58.6185 56.2395 58.2229 55.8592 57.5079 55.7679C57.2188 55.7374 56.9602 55.6309 56.7624 55.4027C56.306 54.8702 56.3516 54.353 56.9145 53.7901C57.9491 52.7555 58.9836 51.7362 60.0029 50.6865C60.3072 50.367 60.5963 50.017 60.4137 49.515C60.1094 48.6934 59.3031 48.4957 58.6337 49.0586C57.66 49.9258 56.7776 50.8842 55.8496 51.7971C55.6061 52.0253 55.3779 52.2383 55.0128 52.2687C54.0543 52.3448 53.4458 51.7971 53.3849 50.7473C53.3545 50.1996 53.3849 49.6367 53.3697 49.089C53.3393 48.5413 52.9285 48.1762 52.3504 48.1762C51.7723 48.1762 51.3615 48.5413 51.3311 49.089C51.3006 49.6519 51.2702 50.2148 51.2702 50.7929C51.2702 51.4319 51.0116 51.9492 50.4182 52.1774C49.8249 52.4208 49.2772 52.2687 48.8208 51.8123C48.4861 51.4623 48.1514 51.1277 47.8167 50.7777C47.345 50.2909 46.6909 50.2605 46.2192 50.6865C45.778 51.0972 45.7932 51.7514 46.2649 52.2382C46.6452 52.6186 47.0256 52.9989 47.4059 53.3793C47.8471 53.8357 47.908 54.3986 47.6645 54.9615C47.4363 55.4636 47.0103 55.7374 46.4474 55.7374C46.204 55.7831 45.9302 55.7831 45.6563 55.7831Z" fill="white"/>
<path d="M47.7057 43.5365C47.6601 44.6319 47.2189 45.4839 46.2148 46.0164C43.5067 47.4313 40.7834 48.8462 38.0753 50.2458C35.915 51.3716 33.7242 52.4518 31.5943 53.5929C30.0881 54.3992 28.3385 53.745 27.6995 52.4366C26.9084 50.824 26.0564 49.2417 25.2349 47.6443C24.885 46.9749 24.4438 46.3359 24.3068 45.56C24.1091 44.4341 24.672 43.217 25.6913 42.6846C27.304 41.8326 28.9318 41.011 30.5597 40.1591C33.496 38.6377 36.4475 37.1163 39.3837 35.5949C39.8554 35.3515 40.3118 35.0929 40.7986 34.9103C42.1983 34.3474 43.7045 34.9864 44.3739 36.3404C45.165 37.9378 46.017 39.5049 46.8233 41.1023C47.0971 41.65 47.3558 42.1977 47.6144 42.7454C47.7209 43.0041 47.6905 43.2627 47.7057 43.5365ZM46.4125 43.5365C46.4277 43.2779 46.3212 43.0649 46.2148 42.8519C45.2715 40.9958 44.3282 39.1397 43.3698 37.2989C43.2024 36.9642 43.0655 36.599 42.746 36.3404C42.1374 35.8688 41.5289 35.9296 40.8747 36.2643C39.1251 37.1771 37.3755 38.0748 35.6259 38.9724C32.6288 40.5242 29.6317 42.1064 26.6041 43.6278C25.5544 44.1603 25.311 45.1188 25.813 46.0468C26.7867 47.8573 27.7147 49.6829 28.6428 51.5086C29.2513 52.6953 29.9968 52.9387 31.1835 52.3301C34.1502 50.7935 37.1169 49.2569 40.0836 47.7203C41.9092 46.7771 43.7349 45.8338 45.5606 44.9058C46.1083 44.6167 46.3669 44.1451 46.4125 43.5365Z" fill="white"/>
<path d="M60.109 17.7031C60.109 20.6242 57.7813 22.9975 54.8755 22.9367C52.0305 22.891 49.6724 20.7763 49.6876 17.6575C49.7028 14.6756 52.1218 12.5 54.9211 12.5C57.7813 12.5152 60.109 14.8581 60.109 17.7031ZM51.0112 17.7336C51.0112 19.8787 52.7303 21.6892 54.8755 21.6587C57.2032 21.6283 58.8159 19.9091 58.8463 17.6879C58.8767 15.5884 57.0054 13.778 54.8755 13.7932C52.7455 13.8084 51.0112 15.5884 51.0112 17.7336Z" fill="white"/>
<path d="M12.5044 34.7278C12.3979 32.5979 14.254 30.7722 16.3687 30.7874C18.529 30.7874 20.2938 32.537 20.3091 34.6822C20.3243 36.8578 18.5595 38.5769 16.3535 38.6074C14.3148 38.6226 12.3979 36.7969 12.5044 34.7278ZM18.9702 34.6974C18.9702 33.2521 17.8292 32.0806 16.4143 32.0654C14.969 32.0654 13.7671 33.2521 13.7671 34.7126C13.7671 36.1123 14.969 37.3294 16.3687 37.3142C17.8292 37.3142 18.9702 36.1579 18.9702 34.6974Z" fill="white"/>
<path d="M32.6914 62.7209C32.7218 64.8813 31.0331 66.6309 28.9031 66.6461C26.7276 66.6765 24.9932 65.0182 24.9019 62.9796C24.7802 60.5454 26.7276 58.8566 28.7814 58.8262C30.9114 58.8262 32.6609 60.5758 32.6914 62.7209ZM31.383 62.7818C31.383 61.3212 30.2267 60.1498 28.7814 60.1346C27.3665 60.1346 26.1951 61.306 26.1799 62.7361C26.1799 64.1967 27.3361 65.3681 28.7814 65.3681C30.242 65.3681 31.383 64.2271 31.383 62.7818Z" fill="white"/>
<path d="M30.5464 25.8577C29.451 25.8729 28.5533 24.9905 28.5685 23.9104C28.5685 22.8454 29.451 21.963 30.5007 21.9326C31.5505 21.9173 32.4633 22.815 32.4937 23.8952C32.4937 24.9449 31.6113 25.8577 30.5464 25.8577ZM31.0332 23.8647C31.0028 23.6061 30.8506 23.4083 30.5311 23.4083C30.2269 23.3931 29.953 23.6365 29.9682 23.9256C29.9834 24.2451 30.1812 24.4428 30.5159 24.4733C30.7898 24.4885 31.0332 24.2146 31.0332 23.8647Z" fill="white"/>
<path d="M34.8998 25.6144C34.1391 25.6144 33.5762 25.0668 33.5762 24.3213C33.5762 23.5758 34.1847 22.9672 34.915 22.9825C35.63 22.9977 36.2386 23.6214 36.2234 24.3365C36.2234 25.0668 35.6605 25.6144 34.8998 25.6144Z" fill="white"/>
<path d="M31.0333 26.7248C31.0333 26.9683 31.0029 27.09 30.9268 27.1965C30.6834 27.5312 30.4552 27.8659 30.1966 28.1854C29.8923 28.5353 29.5272 28.5961 29.2229 28.3527C28.8882 28.0941 28.8273 27.729 29.086 27.3486C29.3142 27.0139 29.5424 26.7096 29.801 26.4053C29.9988 26.1619 30.2727 26.1011 30.5617 26.2076C30.8508 26.2989 31.0181 26.5118 31.0333 26.7248Z" fill="white"/>
<path d="M33.1523 28.3071C33.3653 28.3071 33.5783 28.2918 33.7913 28.3071C34.1716 28.3375 34.4455 28.6266 34.4303 28.9613C34.4303 29.2808 34.1412 29.6307 33.8065 29.6611C33.3653 29.6915 32.9393 29.6915 32.4981 29.6611C32.133 29.6307 31.8743 29.2808 31.9048 28.9613C31.92 28.6266 32.1938 28.3375 32.559 28.3071C32.7567 28.2918 32.9545 28.3071 33.1523 28.3071Z" fill="white"/>
<path d="M33.2719 27.653C32.7698 27.653 32.4199 27.3031 32.4199 26.801C32.4199 26.3294 32.8307 25.8882 33.2871 25.8882C33.7435 25.8882 34.1847 26.3446 34.1695 26.801C34.1543 27.3183 33.7892 27.653 33.2719 27.653Z" fill="white"/>
<path d="M32.7537 20.9741C33.0276 21.0045 33.2558 21.1415 33.2558 21.4914C33.2558 21.8109 33.0124 22.0847 32.7233 22.0999C32.4342 22.0999 32.1452 21.8261 32.1452 21.537C32.13 21.2023 32.3886 20.9741 32.7537 20.9741Z" fill="white"/>
<path d="M49.9462 57.9896C48.8813 57.9743 48.0293 57.1071 48.0293 56.027C48.0293 54.9468 48.8813 54.0796 49.9615 54.0796C51.0112 54.0796 51.9393 54.9772 51.9545 55.9965C51.9393 57.0767 51.0264 58.0048 49.9462 57.9896ZM50.4939 56.0878C50.4939 55.7683 50.2505 55.4793 49.9767 55.4793C49.718 55.4793 49.429 55.7683 49.429 56.027C49.4442 56.3617 49.6572 56.529 49.9767 56.5442C50.2962 56.529 50.4635 56.3465 50.4939 56.0878Z" fill="white"/>
<path d="M53.0335 56.392C53.0487 55.6617 53.6573 55.0683 54.3723 55.0988C55.0874 55.114 55.6959 55.7378 55.6807 56.4376C55.6655 57.1831 55.0569 57.7612 54.2963 57.746C53.5812 57.7308 53.0183 57.1374 53.0335 56.392Z" fill="white"/>
<path d="M49.0499 60.5605C48.5326 60.5453 48.1979 60.028 48.4566 59.5716C48.6848 59.1456 48.9891 58.7653 49.339 58.4305C49.6128 58.1719 49.9323 58.1719 50.2214 58.4305C50.4952 58.674 50.6017 58.9783 50.3735 59.2977C50.1301 59.6629 49.8562 60.0128 49.5824 60.3475C49.4607 60.5148 49.2629 60.5605 49.0499 60.5605Z" fill="white"/>
<path d="M52.5619 61.8228C52.3641 61.8076 52.1207 61.8076 51.8925 61.762C51.5882 61.7011 51.3904 61.5034 51.36 61.1839C51.3296 60.8644 51.4513 60.6057 51.7404 60.4992C52.2881 60.271 52.8662 60.3015 53.4291 60.4688C53.7182 60.5601 53.8855 60.8187 53.8551 61.1382C53.8247 61.4729 53.6269 61.7164 53.277 61.7924C53.064 61.8229 52.8358 61.8228 52.5619 61.8228Z" fill="white"/>
<path d="M52.7618 58.0503C53.2638 58.0503 53.6442 58.4154 53.6442 58.8871C53.6442 59.3587 53.2182 59.7847 52.7465 59.7695C52.2597 59.7542 51.8793 59.3891 51.8793 58.9023C51.8641 58.4154 52.2445 58.0503 52.7618 58.0503Z" fill="white"/>
<path d="M52.7141 53.6536C52.6989 53.9731 52.4403 54.2013 52.1208 54.1708C51.7861 54.1404 51.6035 53.9426 51.6035 53.6079C51.6035 53.2885 51.8774 53.045 52.1816 53.0602C52.4859 53.0755 52.7293 53.3341 52.7141 53.6536Z" fill="white"/>
<path d="M37.8636 42.7905C37.8332 43.6577 37.0573 44.4032 36.1901 44.3728C35.3229 44.3423 34.5774 43.5512 34.6231 42.6993C34.6687 41.8016 35.4598 41.0562 36.327 41.0866C37.1638 41.117 37.8941 41.9233 37.8636 42.7905Z" fill="white"/>
<path d="M40.1309 43.1406C40.1309 42.456 40.7394 41.8474 41.4392 41.8474C42.1391 41.8474 42.7324 42.456 42.7476 43.1558C42.7476 43.8709 42.1391 44.4642 41.4088 44.4642C40.7394 44.449 40.1309 43.8252 40.1309 43.1406Z" fill="white"/>
<path d="M34.8538 48.1766C34.8538 48.8764 34.2452 49.485 33.5454 49.485C32.8608 49.485 32.237 48.8612 32.2522 48.1614C32.2522 47.4615 32.8608 46.853 33.5606 46.8682C34.2605 46.8682 34.8538 47.4768 34.8538 48.1766Z" fill="white"/>
<path d="M33.8333 44.5559C33.8333 45.0732 33.4682 45.4079 33.0574 45.2861C32.1446 45.0275 31.247 44.7232 30.3494 44.4189C30.0147 44.2972 29.8625 44.0386 29.9538 43.6735C30.0299 43.354 30.3494 43.1258 30.7145 43.2171C31.6426 43.4757 32.5554 43.78 33.453 44.0995C33.6812 44.1755 33.8333 44.3885 33.8333 44.5559Z" fill="white"/>
<path d="M38.1249 40.5545C37.8663 40.5545 37.6533 40.4632 37.5468 40.2045C37.4555 39.9459 37.4403 39.6873 37.6685 39.5047C38.1097 39.1244 38.6422 38.8809 39.1899 38.7136C39.4181 38.6527 39.6463 38.744 39.768 38.957C39.9049 39.1852 39.9201 39.4438 39.768 39.6721C39.6158 39.9155 38.414 40.5545 38.1249 40.5545Z" fill="white"/>
<path d="M37.5618 45.4226C37.9878 45.4074 38.3225 45.7725 38.2312 46.1528C38.1703 46.4875 38.0638 46.8071 37.9421 47.1265C37.8052 47.4765 37.4553 47.6438 37.1662 47.5525C36.8315 47.4308 36.6489 47.1113 36.7402 46.731C36.8163 46.4115 36.938 46.1072 37.0597 45.8029C37.1358 45.5747 37.3336 45.453 37.5618 45.4226Z" fill="white"/>
</svg>
